<svg width="465" height="450" viewBox="0 0 465 450" fill="none" xmlns="http://www.w3.org/2000/svg">
<path d="M432.5 193H441C454.3 193 465 182.3 465 169V40.9998C465 31.2998 459.2 22.4998 450.2 18.7998C441.2 15.0998 430.9 17.0998 424 23.9998L382.4 65.5998C294.8 -20.9002 153.7 -20.6002 66.6001 66.5998C-20.8999 154.1 -20.8999 295.9 66.6001 383.4C154.1 470.9 295.9 470.9 383.4 383.4C395.9 370.9 395.9 350.6 383.4 338.1C370.9 325.6 350.6 325.6 338.1 338.1C275.6 400.6 174.3 400.6 111.8 338.1C49.3001 275.6 49.3001 174.3 111.8 111.8C174 49.5998 274.5 49.2998 337.1 110.8L296 152C289.1 158.9 287.1 169.2 290.8 178.2C294.5 187.2 303.3 193 313 193H432.5Z" fill="url(#paint0_radial_205_138)"/>
<defs>
<radialGradient id="paint0_radial_205_138" cx="0" cy="0" r="1" gradientUnits="userSpaceOnUse" gradientTransform="translate(137.126 136.454) rotate(45.8729) scale(530.774 531.665)">
<stop stop-color="#FFB3F3"/>
<stop offset="1" stop-color="#BA63FF"/>
</radialGradient>
</defs>
</svg>
