<svg width="112" height="432" viewBox="0 0 112 432" fill="none" xmlns="http://www.w3.org/2000/svg">
<path d="M56 320C86.9 320 112 345.1 112 376C112 406.9 86.9 432 56 432C25.1 432 0 406.9 0 376C0 345.1 25.1 320 56 320ZM56 160C86.9 160 112 185.1 112 216C112 246.9 86.9 272 56 272C25.1 272 0 246.9 0 216C0 185.1 25.1 160 56 160ZM112 56C112 86.9 86.9 112 56 112C25.1 112 0 86.9 0 56C0 25.1 25.1 0 56 0C86.9 0 112 25.1 112 56Z" fill="url(#paint0_radial_273_152)"/>
<defs>
<radialGradient id="paint0_radial_273_152" cx="0" cy="0" r="1" gradientUnits="userSpaceOnUse" gradientTransform="translate(32.8623 130.635) rotate(76.3512) scale(378.004 173.729)">
<stop stop-color="#FFB3F3"/>
<stop offset="1" stop-color="#BA63FF"/>
</radialGradient>
</defs>
</svg>
