<svg width="266" height="266" viewBox="0 0 266 266" fill="none" xmlns="http://www.w3.org/2000/svg">
<path d="M188.636 9.75106L163.463 34.9218L231.075 102.529L256.248 77.3584C269.251 64.357 269.251 43.2947 256.248 30.2933L235.756 9.75106C222.754 -3.25035 201.69 -3.25035 188.688 9.75106H188.636ZM151.709 46.6751L30.4741 167.952C25.0651 173.361 21.1123 180.07 18.9279 187.402L0.516492 249.965C-0.78375 254.386 0.412473 259.118 3.63707 262.343C6.86168 265.567 11.5946 266.763 15.9634 265.515L78.531 247.105C85.8644 244.921 92.5737 240.968 97.9827 235.56L219.321 114.282L151.709 46.6751Z" fill="url(#paint0_radial_263_144)"/>
<defs>
<radialGradient id="paint0_radial_263_144" cx="0" cy="0" r="1" gradientUnits="userSpaceOnUse" gradientTransform="translate(78.0479 80.4371) rotate(46.8745) scale(309.896)">
<stop stop-color="#FFB3F3"/>
<stop offset="1" stop-color="#BA63FF"/>
</radialGradient>
</defs>
</svg>
