<svg width="641" height="512" viewBox="0 0 641 512" fill="none" xmlns="http://www.w3.org/2000/svg">
<path d="M209 352C323.9 352 417 273.2 417 176C417 78.8 323.9 0 209 0C94.1 0 0.999989 78.8 0.999989 176C0.999989 214.6 15.7 250.3 40.6 279.4C37.1 288.8 31.9 297.1 26.4 304.1C21.6 310.3 16.7 315.1 13.1 318.4C11.3 320 9.79999 321.3 8.79999 322.1C8.29999 322.5 7.89999 322.8 7.69999 322.9L7.49999 323.1C1.99999 327.2 -0.400011 334.4 1.79999 340.9C3.99999 347.4 10.1 352 17 352C38.8 352 60.8 346.4 79.1 339.5C88.3 336 96.9 332.1 104.4 328.1C135.1 343.3 170.8 352 209 352ZM449 176C449 288.3 349.9 372.9 232.5 383C256.8 457.4 337.4 512 433 512C471.2 512 506.9 503.3 537.7 488.1C545.2 492.1 553.7 496 562.9 499.5C581.2 506.4 603.2 512 625 512C631.9 512 638.1 507.5 640.2 500.9C642.3 494.3 640 487.1 634.4 483L634.2 482.8C634 482.6 633.6 482.4 633.1 482C632.1 481.2 630.6 480 628.8 478.3C625.2 475 620.3 470.2 615.5 464C610 457 604.8 448.6 601.3 439.3C626.2 410.3 640.9 374.6 640.9 335.9C640.9 243.1 556 167 448.3 160.4C448.7 165.5 448.9 170.7 448.9 175.9L449 176Z" fill="url(#paint0_radial_207_147)"/>
<defs>
<radialGradient id="paint0_radial_207_147" cx="0" cy="0" r="1" gradientUnits="userSpaceOnUse" gradientTransform="translate(188.767 154.826) rotate(40.5028) scale(670.306 663.483)">
<stop stop-color="#FFB3F3"/>
<stop offset="1" stop-color="#BA63FF"/>
</radialGradient>
</defs>
</svg>
